<svg width="76" height="74" viewBox="0 0 76 74" fill="none" xmlns="http://www.w3.org/2000/svg">
<g filter="url(#filter0_d_4022_10487)">
<path d="M69.5079 9.45056C61.7437 -0.901679 47.3245 -3.12002 36.9723 4.64416C27.7292 -2.01085 14.7889 -1.2714 6.65501 6.8625C-2.21834 15.7358 -2.21834 30.5248 6.65501 39.7678L34.3842 67.497C35.1237 68.2365 35.8631 68.6062 36.9723 68.6062C38.0814 68.6062 38.8209 68.2365 39.5603 67.497L67.2895 39.7678C75.4234 31.6339 76.1629 18.6936 69.5079 9.45056Z" fill="#EA443B"/>
<path d="M36.2859 5.59739L36.9865 6.10177L37.677 5.58384C47.4956 -1.78005 61.1759 0.309001 68.5613 10.1461C74.8877 18.9421 74.1651 31.2312 66.459 38.9372L38.7298 66.6665C38.4294 66.9668 38.1757 67.1454 37.9279 67.2555C37.6852 67.3634 37.3898 67.4316 36.9723 67.4316C36.5547 67.4316 36.2593 67.3634 36.0167 67.2555C35.7689 67.1454 35.5152 66.9668 35.2148 66.6665L7.49415 38.9458C-0.943761 30.1472 -0.917203 16.0958 7.48558 7.69307C15.1944 -0.0157132 27.4893 -0.736159 36.2859 5.59739Z" stroke="black" stroke-width="2.34921"/>
</g>
<defs>
<filter id="filter0_d_4022_10487" x="0" y="0" width="75.1746" height="73.3046" filterUnits="userSpaceOnUse" color-interpolation-filters="sRGB">
<feFlood flood-opacity="0" result="BackgroundImageFix"/>
<feColorMatrix in="SourceAlpha" type="matrix" values="0 0 0 0 0 0 0 0 0 0 0 0 0 0 0 0 0 0 127 0" result="hardAlpha"/>
<feOffset dx="1.1746" dy="4.69841"/>
<feComposite in2="hardAlpha" operator="out"/>
<feColorMatrix type="matrix" values="0 0 0 0 0 0 0 0 0 0 0 0 0 0 0 0 0 0 1 0"/>
<feBlend mode="normal" in2="BackgroundImageFix" result="effect1_dropShadow_4022_10487"/>
<feBlend mode="normal" in="SourceGraphic" in2="effect1_dropShadow_4022_10487" result="shape"/>
</filter>
</defs>
</svg>
